<svg width="120" height="120" viewBox="0 0 120 120" fill="none" xmlns="http://www.w3.org/2000/svg">
<path d="M88.9827 87.3562C89.7467 80.9953 89.5171 80.0672 94.2514 81.0937L95.4561 81.2016C99.0983 81.3656 103.861 80.6156 106.706 79.3172C112.73 76.5234 116.301 71.8547 110.362 73.0828C96.8155 75.8766 95.8311 71.2875 95.8311 71.2875C110.142 50.0531 116.128 23.1 110.958 16.5047C96.8764 -1.49531 72.4967 7.01719 72.0889 7.24219L71.9577 7.26563C69.2858 6.70313 66.3327 6.375 62.9108 6.32813C56.7796 6.23438 52.1296 7.93594 48.5952 10.6125C48.5952 10.6125 5.10924 -7.30312 7.12956 33.1453C7.56081 41.7516 19.4577 98.3016 33.6608 81.1922C38.8592 74.9391 43.8749 69.6563 43.8749 69.6563C46.3592 71.3109 49.3452 72.1547 52.4717 71.85L52.7155 71.6438C52.6434 72.454 52.6764 73.2701 52.8139 74.0719C49.1577 78.1594 50.2358 78.8766 42.9233 80.3813C35.5264 81.9047 39.8764 84.6188 42.7077 85.3313C46.1483 86.1938 54.1077 87.4125 59.4889 79.8844L59.2733 80.7422C60.7077 81.8906 60.6092 88.9922 60.8202 94.0641C61.0311 99.1359 61.3639 103.875 62.3999 106.664C63.4358 109.453 64.6499 116.648 74.2592 114.633C82.2889 112.912 88.4296 110.433 88.9921 87.3984" fill="black"/>
<path d="M88.9827 87.3562C89.7467 80.9953 89.5171 80.0672 94.2514 81.0937L95.4561 81.2016C99.0983 81.3656 103.861 80.6156 106.706 79.3172C112.73 76.5234 116.301 71.8547 110.362 73.0828C96.8155 75.8766 95.8311 71.2875 95.8311 71.2875C110.142 50.0531 116.128 23.1 110.958 16.5047C96.8764 -1.49531 72.4967 7.01719 72.0889 7.24219L71.9577 7.26563C69.2858 6.70313 66.3327 6.375 62.9108 6.32813C56.7796 6.23438 52.1296 7.93594 48.5952 10.6125C48.5952 10.6125 5.10924 -7.30312 7.12956 33.1453C7.56081 41.7516 19.4577 98.3016 33.6608 81.1922C38.8592 74.9391 43.8749 69.6563 43.8749 69.6563C46.3592 71.3109 49.3452 72.1547 52.4717 71.85L52.7155 71.6438C52.6434 72.454 52.6764 73.2701 52.8139 74.0719C49.1577 78.1594 50.2358 78.8766 42.9233 80.3813C35.5264 81.9047 39.8764 84.6188 42.7077 85.3313C46.1483 86.1938 54.1077 87.4125 59.4889 79.8844L59.2733 80.7422C60.7077 81.8906 60.6092 88.9922 60.8202 94.0641C61.0311 99.1359 61.3639 103.875 62.3999 106.664C63.4358 109.453 64.6499 116.648 74.2592 114.633C82.2889 112.912 88.4296 110.433 88.9921 87.3984" stroke="black" stroke-width="5.3725"/>
<path d="M110.32 73.125C96.7735 75.9188 95.7891 71.3297 95.7891 71.3297C110.1 50.0953 116.086 23.1422 110.92 16.5469C96.8391 -1.45312 72.4594 7.06407 72.0516 7.28438L71.9203 7.30782C68.9426 6.71033 65.9151 6.39487 62.8782 6.36563C56.7469 6.27188 52.0969 7.97344 48.5625 10.65C48.5625 10.65 5.0719 -7.26562 7.0969 33.1828C7.52815 41.7891 19.425 98.3391 33.6282 81.2297C38.8594 74.9391 43.875 69.6563 43.875 69.6563C46.3594 71.3109 49.3453 72.1547 52.4719 71.85L52.7157 71.6438C52.644 72.454 52.6771 73.2701 52.8141 74.0719C49.1578 78.1594 50.236 78.8766 42.9235 80.3813C35.5266 81.9047 39.8766 84.6188 42.7078 85.3313C46.1485 86.1938 54.1078 87.4125 59.4891 79.8844L59.2735 80.7422C60.7078 81.8906 61.711 88.2094 61.5422 93.9375C61.3735 99.6656 61.261 103.594 62.386 106.669C63.511 109.744 64.636 116.653 74.2453 114.638C82.275 112.917 86.4328 108.45 87.0188 101.016C87.4313 95.7281 88.3594 96.5063 88.425 91.7813L89.175 89.5406C90.0328 82.3688 89.3157 80.0578 94.261 81.1359L95.4657 81.2438C99.1078 81.4078 103.875 80.6578 106.669 79.3594C112.692 76.5656 116.264 71.8969 110.325 73.125H110.32Z" fill="#336791"/>
<path d="M60.0656 77.1891C59.6906 90.5297 60.1594 103.964 61.4625 107.189C62.7656 110.414 65.564 116.798 75.1781 114.745C83.2078 113.025 86.1328 109.692 87.3984 102.338L90.3656 78.8203M48.5437 10.3125C48.5437 10.3125 5.02498 -7.48124 7.04999 32.9672C7.48124 41.5734 19.3781 98.1234 33.5812 81.0141C38.7656 74.7656 43.4531 69.8766 43.4531 69.8766M72.0469 7.06407C70.5469 7.53282 96.2531 -2.33437 110.869 16.3359C116.025 22.9313 110.048 49.8844 95.7375 71.1188" stroke="white" stroke-width="1.79" stroke-linecap="round" stroke-linejoin="round"/>
<path d="M95.7422 71.1094C95.7422 71.1094 96.6797 75.7031 110.273 72.9C116.213 71.6719 112.636 76.3406 106.617 79.1344C101.677 81.4313 90.5953 82.0172 90.4125 78.8531C89.9438 70.6734 96.2438 73.1578 95.7891 71.1094C95.3766 69.2625 92.5547 67.4531 90.6984 62.9344C89.0719 58.9969 68.3859 28.7625 96.4359 33.2484C97.4672 33.0375 89.1234 6.52969 62.8734 6.14532C36.6234 5.76094 37.4531 38.4188 37.4531 38.4188" stroke="white" stroke-width="1.79" stroke-linecap="round" stroke-linejoin="bevel"/>
<path d="M52.7201 73.9125C49.0638 78 50.142 78.7172 42.8295 80.2219C35.4326 81.7453 39.7826 84.4594 42.6138 85.1719C46.0545 86.0344 54.0138 87.2531 59.3951 79.7203C61.0357 77.4234 59.3857 73.7672 57.1357 72.8391C56.0482 72.3891 54.5951 71.8266 52.7295 73.9172L52.7201 73.9125Z" stroke="white" stroke-width="1.79" stroke-linejoin="round"/>
<path d="M52.4811 73.8422C52.1061 71.4375 53.2686 68.5828 54.5108 65.2359C56.3764 60.2203 60.6796 55.2047 57.2389 39.2813C54.6749 27.4219 37.4577 36.8109 37.4577 38.4188C37.4577 40.0266 38.2358 46.575 37.1764 54.1922C35.7842 64.1391 43.5046 72.5484 52.3921 71.6906" stroke="white" stroke-width="1.79" stroke-linecap="round" stroke-linejoin="round"/>
<path d="M48.3842 38.1797C48.3046 38.7281 49.3921 40.1953 50.803 40.3922C52.2139 40.5891 53.4186 39.4453 53.4983 38.8922C53.578 38.3391 52.4905 37.7391 51.0796 37.5422C49.6686 37.3453 48.4546 37.6359 48.3842 38.1797V38.1797Z" fill="white" stroke="white" stroke-width="0.5975"/>
<path d="M91.3405 37.0594C91.4155 37.6078 90.3326 39.075 88.9217 39.2719C87.5108 39.4688 86.2967 38.325 86.2264 37.7719C86.1561 37.2188 87.2342 36.6188 88.6451 36.4219C90.0561 36.225 91.2701 36.5156 91.3405 37.0594Z" fill="white" stroke="white" stroke-width="0.2975"/>
<path d="M96.3844 33.2578C96.6188 37.5703 95.4563 40.5 95.3063 45.0891C95.0907 51.7547 98.4844 59.3859 93.3704 67.0266" stroke="white" stroke-width="1.79" stroke-linecap="round" stroke-linejoin="round"/>
</svg>
